<svg
  xmlns="http://www.w3.org/2000/svg"
  xmlns:xlink="http://www.w3.org/1999/xlink"
  fill="none"
  version="1.1"
  viewBox="0 0 200 200"
>
  <defs>
    <clipPath id="master_svg0_1_09"><rect x="0" y="0" width="200" height="200" rx="0" /></clipPath>
    <linearGradient
      x1="0.31521737575531006"
      y1="1.1111176013946533"
      x2="1.0326086282730103"
      y2="1.1111180782318115"
      id="master_svg1_1_02"
    >
      <stop offset="0%" stop-color="#F94612" stop-opacity="1" />
      <stop offset="100%" stop-color="#F98F12" stop-opacity="1" />
    </linearGradient>
  </defs>
  <g clip-path="url(#master_svg0_1_09)">
    <g>
      <g>
        <path
          d="M118.454,90.5205C118.454,90.5205,118.454,181,118.454,181C118.454,181,158.502,181,158.502,181C158.502,181,158.502,90.5205,158.502,90.5205C158.502,90.5205,118.454,90.5205,118.454,90.5205C118.454,90.5205,118.454,90.5205,118.454,90.5205ZM57.0477,181C57.0477,181,57.0477,90.5205,57.0477,90.5205C57.0477,90.5205,17,90.5205,17,90.5205C17,90.5205,17,181,17,181C17,181,57.0477,181,57.0477,181C57.0477,181,57.0477,181,57.0477,181ZM87.7511,59.9172C104.7081,59.9172,118.454,73.6189,118.454,90.5205C118.454,90.5205,158.502,90.5205,158.502,90.5205C158.502,51.5731,126.826,20.000000000000007,87.7511,20.000000000000007C87.7511,20.000000000000007,87.7511,59.9172,87.7511,59.9172C87.7511,59.9172,87.7511,59.9172,87.7511,59.9172ZM87.7511,20.000000000000007C48.6763,20.000000000000007,17,51.5731,17,90.5205C17,90.5205,57.0477,90.5205,57.0477,90.5205C57.0477,73.6189,70.79419999999999,59.9172,87.7511,59.9172C87.7511,59.9172,87.7511,20.000000000000007,87.7511,20.000000000000007C87.7511,20.000000000000007,87.7511,20.000000000000007,87.7511,20.000000000000007Z"
          fill="#F94612"
          fill-opacity="1"
        />
      </g>
      <g>
        <path
          d="M40.81809183288574,147.37406552734376C40.81809183288574,147.37406552734376,192.99958183288575,118.10146552734375,192.99958183288575,118.10146552734375C192.99958183288575,118.10146552734375,185.41158183288573,78.90716552734375,185.41158183288573,78.90716552734375C185.41158183288573,78.90716552734375,33.22958183288574,108.17996552734375,33.22958183288574,108.17996552734375C33.22958183288574,108.17996552734375,40.81809183288574,147.37406552734376,40.81809183288574,147.37406552734376C40.81809183288574,147.37406552734376,40.81809183288574,147.37406552734376,40.81809183288574,147.37406552734376Z"
          fill="url(#master_svg1_1_02)"
          fill-opacity="1"
        />
      </g>
    </g>
  </g>
</svg>
